<svg xmlns="http://www.w3.org/2000/svg" xmlns:xlink="http://www.w3.org/1999/xlink" viewBox="0 0 296.18 130.3"><defs><style>.cls-1{fill:url(#linear-gradient);}.cls-2{fill:url(#linear-gradient-2);}.cls-3{fill:none;}.cls-4{fill:url(#linear-gradient-3);}.cls-5{fill:url(#linear-gradient-4);}.cls-6{fill:url(#linear-gradient-5);}.cls-7{fill:url(#linear-gradient-6);}.cls-8{fill:url(#linear-gradient-7);}.cls-9{fill:url(#linear-gradient-8);}.cls-10,.cls-11{font-size:38px;font-family:GillSansMT-BoldItalic, Gill Sans MT;font-weight:700;font-style:italic;}.cls-10{fill:#8d652e;}.cls-11{fill:#ff8435;}</style><linearGradient id="linear-gradient" x1="0.42" y1="21.64" x2="38.77" y2="21.64" gradientUnits="userSpaceOnUse"><stop offset="0" stop-color="#ad00e9"/><stop offset="0.59" stop-color="#6800ff"/><stop offset="1" stop-color="#5560ff"/></linearGradient><linearGradient id="linear-gradient-2" x1="24.82" y1="19.94" x2="54.97" y2="19.94" gradientUnits="userSpaceOnUse"><stop offset="0.02" stop-color="#4d5e80"/><stop offset="1" stop-color="#00bf91"/></linearGradient><linearGradient id="linear-gradient-3" x1="34.45" y1="20.15" x2="45.87" y2="20.15" gradientUnits="userSpaceOnUse"><stop offset="0.02" stop-color="#ffd9b3"/><stop offset="0.38" stop-color="#ffd5af"/><stop offset="0.74" stop-color="#ffc9a5"/><stop offset="1" stop-color="#fb9"/></linearGradient><linearGradient id="linear-gradient-4" x1="30.34" y1="31.29" x2="49.86" y2="31.29" gradientUnits="userSpaceOnUse"><stop offset="0" stop-color="#ff7f40"/><stop offset="0.97" stop-color="#c24e3c"/></linearGradient><linearGradient id="linear-gradient-5" x1="253.31" y1="216.7" x2="291.67" y2="216.7" gradientTransform="translate(307.86 266.91) rotate(180)" xlink:href="#linear-gradient"/><linearGradient id="linear-gradient-6" x1="20.83" y1="50.57" x2="50.98" y2="50.57" gradientTransform="translate(-20.83 -2.07)" xlink:href="#linear-gradient-2"/><linearGradient id="linear-gradient-7" x1="30.46" y1="50.78" x2="41.88" y2="50.78" gradientTransform="translate(-20.83 -2.07)" xlink:href="#linear-gradient-3"/><linearGradient id="linear-gradient-8" x1="26.35" y1="61.92" x2="45.88" y2="61.92" gradientTransform="translate(-20.83 -2.07)" xlink:href="#linear-gradient-4"/></defs><g id="Layer_2" data-name="Layer 2"><g id="Layer_1-2" data-name="Layer 1"><path class="cls-1" d="M38.77,6.62a15,15,0,0,0-12.26,8.07c-.31.05-.61.12-.92.2a20.43,20.43,0,0,0-7.15,3.87,33.76,33.76,0,0,0-5.14,4.65,34.47,34.47,0,0,0-4,5.28l3.93,2.54L.72,36.7.42,23.58,4.05,25.2A28.67,28.67,0,0,1,6.88,20a30.3,30.3,0,0,1,5.91-6.34,30,30,0,0,1,5-3.5A29.45,29.45,0,0,1,25,7.29c1.33-.33,3.16-.67,9.31-.7C35.57,6.58,37.08,6.58,38.77,6.62Z"/><path class="cls-2" d="M55,21.64A15.05,15.05,0,0,1,49.86,33a10.31,10.31,0,0,0-9.7-7.09,5.71,5.71,0,1,0-5.71-5.71,5.71,5.71,0,0,0,5.71,5.71,10.37,10.37,0,0,0-9.83,7.45A15.07,15.07,0,0,1,38.77,6.62h0a9.83,9.83,0,0,1,1.09,0A15.08,15.08,0,0,1,55,21.64Z"/><path class="cls-3" d="M40.16,25.86a5.71,5.71,0,1,1,5.71-5.71A5.71,5.71,0,0,1,40.16,25.86Z"/><path class="cls-3" d="M49.86,33a15.07,15.07,0,0,1-19.52.36A10.19,10.19,0,0,1,49.86,33Z"/><path class="cls-4" d="M45.87,20.15a5.71,5.71,0,1,1-5.71-5.71A5.71,5.71,0,0,1,45.87,20.15Z"/><path class="cls-5" d="M49.86,33a15.07,15.07,0,0,1-19.52.36A10.19,10.19,0,0,1,49.86,33Z"/><path class="cls-6" d="M16.19,65.23a15,15,0,0,0,12.26-8.07c.32-.06.62-.12.93-.2,2.88-.76,4.83-2.19,7.14-3.87a33.65,33.65,0,0,0,5.15-4.65,35.85,35.85,0,0,0,4-5.28L41.7,40.62l12.54-5.47q.16,6.57.31,13.11l-3.63-1.61a28.19,28.19,0,0,1-2.84,5.24,30.47,30.47,0,0,1-5.9,6.33,30.27,30.27,0,0,1-5,3.5A29.21,29.21,0,0,1,30,64.56c-1.32.33-3.15.67-9.3.7C19.4,65.27,17.89,65.27,16.19,65.23Z"/><path class="cls-7" d="M30.15,50.2A15.05,15.05,0,0,1,25,61.51a10.31,10.31,0,0,0-9.7-7.09,5.71,5.71,0,1,0-5.71-5.71,5.71,5.71,0,0,0,5.71,5.71,10.37,10.37,0,0,0-9.83,7.45A15.07,15.07,0,0,1,14,35.18h0a9.83,9.83,0,0,1,1.09,0A15.08,15.08,0,0,1,30.15,50.2Z"/><path class="cls-3" d="M15.34,54.42a5.71,5.71,0,1,1,5.71-5.71A5.71,5.71,0,0,1,15.34,54.42Z"/><path class="cls-3" d="M25,61.51a15.07,15.07,0,0,1-19.52.36,10.36,10.36,0,0,1,9.82-7.45A10.31,10.31,0,0,1,25,61.51Z"/><path class="cls-8" d="M21.05,48.71A5.71,5.71,0,1,1,15.34,43,5.71,5.71,0,0,1,21.05,48.71Z"/><path class="cls-9" d="M25,61.51a15.07,15.07,0,0,1-19.52.36,10.36,10.36,0,0,1,9.82-7.45A10.31,10.31,0,0,1,25,61.51Z"/><text class="cls-10" transform="translate(57.18 31.96)">Poompuhar</text><text class="cls-11" transform="translate(54.97 65.28)">Connect</text></g></g></svg>