<svg xmlns="http://www.w3.org/2000/svg" viewBox="0 0 47.72 76.87"><defs><style>.cls-1{fill:none;stroke:#000;stroke-miterlimit:10;}</style></defs><g id="Layer_2" data-name="Layer 2"><g id="Layer_1-2" data-name="Layer 1"><path class="cls-1" d="M23.86.5a23.36,23.36,0,0,0-5,46.18V72.16a4.22,4.22,0,0,0,4.22,4.21h1.58a4.22,4.22,0,0,0,4.22-4.21V46.68A23.36,23.36,0,0,0,23.86.5ZM34.68,36.93a16.71,16.71,0,0,1-7.18,3.5,16.24,16.24,0,0,1-3.64.4,16.78,16.78,0,0,1-3.64-.4,17,17,0,1,1,14.46-3.5Z"/></g></g></svg>