<svg xmlns="http://www.w3.org/2000/svg" viewBox="0 0 65.49 70.41"><defs><style>.cls-1{fill:none;stroke:#000;stroke-miterlimit:10;}</style></defs><g id="Layer_2" data-name="Layer 2"><g id="Layer_1-2" data-name="Layer 1"><path class="cls-1" d="M63.81,61.68l-21.12-24a23,23,0,0,0,4.24-10.16A23.36,23.36,0,1,0,35.17,44.3l21.11,24a4.76,4.76,0,0,0,6.71.43l.39-.35A4.76,4.76,0,0,0,63.81,61.68ZM40.56,26.51a16.81,16.81,0,0,1-3.06,7.35A17,17,0,0,1,35,36.56a17.5,17.5,0,0,1-3,2.1,16.92,16.92,0,1,1,8.51-12.15Z"/></g></g></svg>